<?xml version="1.0" encoding="UTF-8"?>
<svg xmlns="http://www.w3.org/2000/svg" version="1.1" viewBox="0 0 300 300">
  <defs>
    <style>
      .cls-1 {
        opacity: .2;
      }

      .cls-1, .cls-2 {
        fill: #fff;
      }
    </style>
  </defs>
  <!-- Generator: Adobe Illustrator 28.7.1, SVG Export Plug-In . SVG Version: 1.2.0 Build 142)  -->
  <g>
    <g id="Layer_1">
      <g>
        <path class="cls-2" d="M114.2,39.9c10.1-26.4,47.2-26.5,57.1-.2,16.3-10.2,37.9-3.4,45.1,15.2,4.3-2.5,8.9-4.2,14-4.7,14.4-1.4,28.1,8.1,31.6,22.2.7,2.8,1,5.7,1,8.6,0,32.1.3,64.2,0,96.3-.3,30.7-12.3,56.1-35.8,75.8-14.2,11.9-30.6,19.1-49.1,21.3-33.7,3.9-63.6-5.4-89-27.7-13.1-11.5-25.1-24.3-37.3-36.8-8.9-9.1-13.6-20.4-14.1-33.2-.4-9.5-.4-19,0-28.4.6-13.7,6.2-25.3,15.9-35,4.2-4.2,8.4-8.3,12.5-12.6.8-.8,1.4-2.3,1.4-3.4.1-10.5,0-21,0-31.4,0-15.2,9.2-26.8,23.6-30.3,8.2-2,15.8-.2,23.1,4.2ZM67.5,121.1c-9,7.7-14.4,16.8-14.8,28.1-.4,9.1-.3,18.1,0,27.2.4,9.9,4.6,18.2,11.7,25.1,9.5,9.4,18.9,18.9,28.4,28.4,13,12.9,28.1,22.1,45.8,26.9,11.7,3.2,23.7,4.4,35.8,3.1,13-1.4,25.1-5.7,36-12.9,14.6-9.7,25.2-22.6,31.8-39,4.3-10.6,5.9-21.8,5.9-33.1,0-30.8,0-61.6,0-92.3,0-1.6-.1-3.2-.3-4.7-1-7.3-7.5-13-14.8-12.8-7.8.1-14.2,6.1-14.7,13.8-.2,3.3,0,6.7-.4,10-.5,4.2-4.3,6.8-8.4,6.2-4.1-.6-6.4-3.6-6.4-8.5,0-7.5.1-15-.2-22.5-.4-9.5-9.8-16-18.9-13.4-6.7,1.9-10.9,7.7-11,15.2,0,7.2,0,14.5,0,21.7,0,3.7-2.4,6.7-5.9,7.3-5,1-9.1-2.5-9.1-7.9,0-12.1,0-24.3,0-36.4,0-4.7-1.5-8.7-5.1-11.7-4.8-4.1-10.2-5.1-16-2.5-5.8,2.6-8.8,7.4-8.9,13.8,0,9.5,0,19,0,28.5,0,3,0,6,0,9-.2,4-2.8,6.8-6.5,7.3-3.5.5-6.9-1.5-8-4.9-.4-1.2-.4-2.6-.4-3.9-.1-7.7,0-15.5-.4-23.2-.5-7.2-6.3-12.1-13.9-12.9-6.2-.6-13,3.9-14.9,10.2-.7,2.3-.9,4.7-.9,7.1,0,20.9,0,41.8,0,62.6,0,1.2,0,2.5-.2,3.7-.3,2.9-2,4.9-4.7,5.9-5.1,1.9-10-1.6-10.2-7.5-.1-3.5,0-7.1,0-11.1Z"/>
        <path class="cls-1" d="M67.5,121.1c0,4-.1,7.6,0,11.1.2,5.9,5.1,9.4,10.2,7.5,2.7-1,4.4-3,4.7-5.9.1-1.2.2-2.5.2-3.7,0-20.9,0-41.8,0-62.6,0-2.4.2-4.9.9-7.1,1.9-6.3,8.7-10.9,14.9-10.2,7.6.8,13.4,5.8,13.9,12.9.5,7.7.3,15.5.4,23.2,0,1.3,0,2.7.4,3.9,1.1,3.4,4.5,5.4,8,4.9,3.8-.5,6.4-3.4,6.5-7.3.1-3,0-6,0-9,0-9.5,0-19,0-28.5,0-6.4,3-11.2,8.9-13.8,5.8-2.6,11.2-1.6,16,2.5,3.5,3.1,5.1,7.1,5.1,11.7,0,12.1,0,24.3,0,36.4,0,5.4,4.1,8.9,9.1,7.9,3.4-.7,5.8-3.6,5.9-7.3,0-7.2,0-14.5,0-21.7,0-7.5,4.3-13.2,11-15.2,9.1-2.6,18.5,3.9,18.9,13.4.3,7.5,0,15,.2,22.5,0,4.8,2.4,7.8,6.4,8.5,4.2.7,8-2,8.4-6.2.4-3.3.2-6.6.4-10,.5-7.7,6.9-13.7,14.7-13.8,7.3-.1,13.9,5.5,14.8,12.8.2,1.6.3,3.1.3,4.7,0,30.8,0,61.6,0,92.3,0,11.4-1.6,22.5-5.9,33.1-6.6,16.3-17.2,29.3-31.8,39-10.9,7.2-23,11.5-36,12.9-12.1,1.3-24,.1-35.8-3.1-17.7-4.8-32.9-14-45.8-26.9-9.5-9.5-18.9-19-28.4-28.4-7-7-11.3-15.3-11.7-25.1-.3-9.1-.4-18.1,0-27.2.5-11.4,5.8-20.4,14.8-28.1Z"/>
      </g>
    </g>
  </g>
</svg>